HIERARCHY
ROOT hip
{
	OFFSET 0.000000 0.000000 0.000000 
	CHANNELS 6 Xposition Yposition Zposition Xrotation Zrotation Yrotation
	JOINT abdomen
	{
		OFFSET 0.000000 3.402643 0.000000 
		CHANNELS 3 Xrotation Zrotation Yrotation
		JOINT chest
		{
			OFFSET 0.000000 8.438565 -0.680529 
			CHANNELS 3 Xrotation Zrotation Yrotation
			JOINT neck
			{
				OFFSET 0.000000 10.207942 -0.272212 
				CHANNELS 3 Xrotation Zrotation Yrotation
				JOINT head
				{
					OFFSET 0.000000 3.130431 0.000000 
					CHANNELS 3 Xrotation Zrotation Yrotation
					End Site
					{
						OFFSET 0.000000 3.130435 0.000000 
					}
				}
			}
			JOINT lCollar
			{
				OFFSET 3.470700 6.669187 -0.816635 
				CHANNELS 3 Yrotation Zrotation Xrotation
				JOINT lShldr
				{
					OFFSET 3.198488 0.000000 0.000000 
					CHANNELS 3 Zrotation Yrotation Xrotation
					JOINT lForeArm
					{
						OFFSET 10.139888 0.000000 0.000000 
						CHANNELS 3 Yrotation Zrotation Xrotation
						JOINT lHand
						{
							OFFSET 8.370511 0.000000 0.000000 
							CHANNELS 3 Zrotation Yrotation Xrotation
							End Site
							{
								OFFSET 4.083176 0.000000 0.000000 
							}
						}
					}
				}
			}
			JOINT rCollar
			{
				OFFSET -3.470700 6.669187 -0.816635 
				CHANNELS 3 Yrotation Zrotation Xrotation
				JOINT rShldr
				{
					OFFSET -3.198488 0.000000 0.000000 
					CHANNELS 3 Zrotation Yrotation Xrotation
					JOINT rForeArm
					{
						OFFSET -10.139888 0.000000 0.000000 
						CHANNELS 3 Yrotation Zrotation Xrotation
						JOINT rHand
						{
							OFFSET -8.370511 0.000000 0.000000 
							CHANNELS 3 Zrotation Yrotation Xrotation
							End Site
							{
								OFFSET -4.083176 0.000000 0.000000 
							}
						}
					}
				}
			}
		}
	}
	JOINT lThigh
	{
		OFFSET 5.308129 -1.633274 1.361059 
		CHANNELS 3 Xrotation Zrotation Yrotation
		JOINT lShin
		{
			OFFSET -2.041588 -20.007561 0.000000 
			CHANNELS 3 Xrotation Zrotation Yrotation
			JOINT lFoot
			{
				OFFSET 0.000000 -19.190928 -1.224953 
				CHANNELS 3 Xrotation Yrotation Zrotation
				End Site
				{
					OFFSET 0.000000 -2.449906 4.627600 
				}
			}
		}
	}
	JOINT rThigh
	{
		OFFSET -5.308129 -1.633274 1.361059 
		CHANNELS 3 Xrotation Zrotation Yrotation
		JOINT rShin
		{
			OFFSET 2.041588 -20.007561 0.000000 
			CHANNELS 3 Xrotation Zrotation Yrotation
			JOINT rFoot
			{
				OFFSET 0.000000 -19.190928 -1.224953 
				CHANNELS 3 Xrotation Yrotation Zrotation
				End Site
				{
					OFFSET 0.000000 -2.449906 4.627600 
				}
			}
		}
	}
}
MOTION
Frames: 8
Frame Time: 0.033333
8.952858 42.250439 -37.282452 -1.025509 0.869001 -50.005787 21.132523 -0.065369 -0.349824 -20.839844 0.000000 0.000000 23.623495 -0.540782 23.163803 -2.520832 -1.255077 0.218355 -4.754609 -0.109184 -0.002653 -22.820860 -45.645966 -6.807550 -31.044821 -0.698242 -32.352047 5.979702 -28.234257 0.015806 4.754609 0.109184 -0.002672 60.723278 64.717590 43.690559 97.839020 1.219497 -39.353115 -13.101110 -13.963194 1.367529 -0.684313 19.363361 15.200198 -2.391922 -3.800446 4.710865 9.768716 -0.318035 -6.988978 3.816284 -18.304646 -4.525899 3.453648 4.067558 2.804755 -6.254915 -1.462392 12.340658 
8.929497 42.255001 -37.265194 -1.005975 0.869007 -50.015255 21.132540 -0.059735 -0.337177 -20.839844 0.000000 0.000000 23.789648 -0.665804 22.936888 -2.520832 -1.255077 0.218355 -4.754609 -0.109184 -0.002653 -22.788969 -45.454765 -6.623589 -31.289749 -0.710535 -33.409962 5.116208 -28.706968 0.225250 4.754609 0.109184 -0.002672 61.486347 64.340149 44.399384 97.597519 1.183252 -37.437454 -12.678743 -14.519575 1.361771 -0.684885 19.390808 14.746894 -2.384914 -3.784655 5.208242 9.729521 -0.312933 -6.988525 3.964409 -18.290874 -4.458279 3.167929 4.054641 2.705892 -6.134108 -1.454580 12.340534 
8.904625 42.257534 -37.235760 -1.015747 0.888532 -50.152473 21.132559 -0.063209 -0.328050 -20.839844 0.000000 0.000000 23.846714 -0.567332 22.610804 -2.520832 -1.255077 0.218355 -4.754609 -0.109184 -0.002653 -22.726412 -45.103260 -6.505805 -31.599443 -0.711000 -34.113178 4.610667 -29.035418 0.346108 4.754609 0.109184 -0.002672 62.515697 63.951935 45.490810 97.127876 1.116650 -34.632500 -12.184811 -15.222572 1.360350 -0.636747 19.386845 14.365970 -2.333591 -3.762122 5.730515 9.618675 -0.287762 -6.923434 4.079571 -18.312351 -4.392274 2.907644 4.058836 2.774509 -6.024118 -1.480223 12.443489 
8.876198 42.256023 -37.202236 -1.064584 0.898282 -50.319427 21.132540 -0.059735 -0.337177 -20.839844 0.000000 0.000000 23.756159 -0.309125 22.177776 -2.520832 -1.255077 0.218355 -4.754609 -0.109184 -0.002653 -22.633207 -44.818924 -6.401090 -31.713795 -0.717859 -34.601505 4.220008 -29.042070 0.446952 4.754609 0.109184 -0.002672 62.790966 63.858662 45.935368 97.097809 1.095920 -33.800827 -11.958890 -15.544525 1.351336 -0.518067 19.355978 14.376626 -2.285563 -3.775606 5.884396 9.560526 -0.288350 -6.874434 4.079576 -18.382542 -4.200792 2.933304 4.063837 2.796174 -6.072416 -1.463899 12.483950 
8.851814 42.255512 -37.173809 -1.123185 0.898265 -50.466827 21.132494 -0.043677 -0.351909 -20.839844 0.000000 0.000000 23.666643 -0.113365 21.905838 -2.520832 -1.255077 0.218355 -4.754609 -0.109184 -0.002653 -22.624413 -44.735348 -6.240691 -31.632498 -0.720358 -34.699902 4.068504 -28.825621 0.496192 4.754609 0.109184 -0.002672 62.434986 63.971584 45.694958 97.486572 1.114617 -34.706940 -11.879379 -15.426633 1.324723 -0.411638 19.280151 14.323562 -2.248877 -3.746598 6.036795 9.519190 -0.292407 -6.866498 4.079855 -18.450558 -4.048760 2.987117 4.060262 2.731446 -6.126069 -1.474073 12.502218 
8.830498 42.257030 -37.142834 -1.220850 0.888470 -50.604866 21.142258 -0.034559 -0.348413 -20.839844 0.000000 0.000000 23.646694 -0.054959 21.831919 -2.520832 -1.255077 0.218355 -4.754609 -0.109184 -0.002653 -22.638311 -44.743130 -5.985485 -31.465448 -0.711640 -34.527557 4.326880 -28.592810 0.439548 4.754609 0.109184 -0.002672 62.125740 63.891953 45.366768 97.816452 1.125569 -35.074383 -11.506275 -15.493555 1.272619 -0.283874 19.227583 13.987117 -2.178826 -3.715423 6.489707 9.415318 -0.296742 -6.880444 4.216577 -18.547724 -3.972481 2.859111 4.058985 2.692895 -6.084167 -1.469399 12.534951 
8.809166 42.256519 -37.103756 -1.357581 0.878660 -50.743477 21.161833 -0.050595 -0.333735 -20.839844 0.000000 0.000000 23.733829 -0.045688 21.646173 -2.520832 -1.255077 0.218355 -4.754609 -0.109184 -0.002653 -22.472254 -44.467247 -5.814939 -31.874947 -0.726498 -35.286613 3.963730 -27.974108 0.539962 4.754609 0.109184 -0.002672 61.808426 63.843369 45.060478 98.077705 1.141968 -35.859245 -11.274491 -15.531751 1.240385 -0.118366 19.118244 13.888170 -2.090893 -3.705317 6.678367 9.269909 -0.270157 -6.886508 4.392385 -18.693790 -3.945207 2.779122 4.056248 2.755465 -6.112997 -1.484403 12.667888 
8.789391 42.248905 -37.075329 -1.494324 0.898132 -50.775379 21.181347 -0.056206 -0.346443 -20.839844 0.000000 0.000000 23.762980 -0.220556 21.489281 -2.520832 -1.255077 0.218355 -4.754609 -0.109184 -0.002653 -21.646843 -43.502048 -5.617194 -33.270336 -0.743423 -37.697998 1.699014 -26.392324 1.064603 4.754609 0.109184 -0.002672 60.879223 64.013847 44.606453 98.342667 1.174163 -37.348167 -11.628392 -15.298422 1.277055 -0.019951 18.984306 14.037251 -2.022690 -3.715326 6.595718 9.179867 -0.284413 -6.953563 4.413206 -18.855352 -3.844858 2.962541 4.054223 2.759221 -6.338293 -1.527688 12.836392 
